<?xml version="1.0" encoding="UTF-8"?>
<svg xmlns="http://www.w3.org/2000/svg" viewBox="0 0 560 72">
  <defs>
    <filter id="gd" x="-20%" y="-60%" width="140%" height="220%">
      <feGaussianBlur stdDeviation="0.9" result="b"/>
      <feMerge><feMergeNode in="b"/><feMergeNode in="SourceGraphic"/></feMerge>
    </filter>
  </defs>

  <!-- ══════════════════════════════════
       CENTER ROSE (large)
  ══════════════════════════════════ -->
  <g transform="translate(280,36)" filter="url(#gd)">
    <!-- Leaves behind the rose -->
    <path d="M-10,4 C-18,-2 -22,-16 -16,-26 C-10,-32 -2,-28 2,-20 C-4,-16 -8,-6 -10,4Z"
          fill="#C9A96E" opacity="0.50"/>
    <path d="M10,4 C18,-2 22,-16 16,-26 C10,-32 2,-28 -2,-20 C4,-16 8,-6 10,4Z"
          fill="#C9A96E" opacity="0.46"/>
    <!-- Outer petals (5) -->
    <path d="M0,-5 C-9,-6 -14,-16 -11,-25 C-8,-31 8,-31 11,-25 C14,-16 9,-6 0,-5Z"
          fill="#C9A96E" opacity="0.88"/>
    <path d="M0,-5 C-9,-6 -14,-16 -11,-25 C-8,-31 8,-31 11,-25 C14,-16 9,-6 0,-5Z"
          fill="#C9A96E" opacity="0.78" transform="rotate(72)"/>
    <path d="M0,-5 C-9,-6 -14,-16 -11,-25 C-8,-31 8,-31 11,-25 C14,-16 9,-6 0,-5Z"
          fill="#C9A96E" opacity="0.84" transform="rotate(144)"/>
    <path d="M0,-5 C-9,-6 -14,-16 -11,-25 C-8,-31 8,-31 11,-25 C14,-16 9,-6 0,-5Z"
          fill="#C9A96E" opacity="0.76" transform="rotate(216)"/>
    <path d="M0,-5 C-9,-6 -14,-16 -11,-25 C-8,-31 8,-31 11,-25 C14,-16 9,-6 0,-5Z"
          fill="#C9A96E" opacity="0.82" transform="rotate(288)"/>
    <!-- Inner petals (5, cream) -->
    <path d="M0,-4 C-5,-5 -8,-12 -6,-18 C-4,-22 4,-22 6,-18 C8,-12 5,-5 0,-4Z"
          fill="#E8D5B0" opacity="0.60"/>
    <path d="M0,-4 C-5,-5 -8,-12 -6,-18 C-4,-22 4,-22 6,-18 C8,-12 5,-5 0,-4Z"
          fill="#E8D5B0" opacity="0.54" transform="rotate(72)"/>
    <path d="M0,-4 C-5,-5 -8,-12 -6,-18 C-4,-22 4,-22 6,-18 C8,-12 5,-5 0,-4Z"
          fill="#E8D5B0" opacity="0.58" transform="rotate(144)"/>
    <path d="M0,-4 C-5,-5 -8,-12 -6,-18 C-4,-22 4,-22 6,-18 C8,-12 5,-5 0,-4Z"
          fill="#E8D5B0" opacity="0.52" transform="rotate(216)"/>
    <path d="M0,-4 C-5,-5 -8,-12 -6,-18 C-4,-22 4,-22 6,-18 C8,-12 5,-5 0,-4Z"
          fill="#E8D5B0" opacity="0.56" transform="rotate(288)"/>
    <!-- Center -->
    <circle r="5.5" fill="#C9A96E" opacity="0.95"/>
    <circle r="2.8" fill="#E8D5B0" opacity="0.85"/>
    <circle r="1.2" fill="#fff" opacity="0.6"/>
  </g>

  <!-- ══════════════════════════════════
       LEFT ARM
  ══════════════════════════════════ -->
  <g filter="url(#gd)">
    <!-- Vine -->
    <path d="M 260,36 C 232,27 205,44 180,35 C 160,28 142,40 120,34 C 102,29 84,38 64,33 L 24,35"
          fill="none" stroke="#C9A96E" stroke-width="1.3" stroke-linecap="round" opacity="0.62"/>

    <!-- Rose at x≈172, y≈28 -->
    <g transform="translate(172,28)">
      <path d="M-6,4 C-12,0 -14,-10 -10,-17 C-6,-21 6,-21 10,-17 C14,-10 12,0 6,4Z"
            fill="none" stroke="#C9A96E" stroke-width="0.8" opacity="0.5"/>
      <path d="M0,-3 C-6,-4 -9,-11 -7,-18 C-5,-22 5,-22 7,-18 C9,-11 6,-4 0,-3Z"
            fill="#C9A96E" opacity="0.82"/>
      <path d="M0,-3 C-6,-4 -9,-11 -7,-18 C-5,-22 5,-22 7,-18 C9,-11 6,-4 0,-3Z"
            fill="#C9A96E" opacity="0.73" transform="rotate(72)"/>
      <path d="M0,-3 C-6,-4 -9,-11 -7,-18 C-5,-22 5,-22 7,-18 C9,-11 6,-4 0,-3Z"
            fill="#C9A96E" opacity="0.78" transform="rotate(144)"/>
      <path d="M0,-3 C-6,-4 -9,-11 -7,-18 C-5,-22 5,-22 7,-18 C9,-11 6,-4 0,-3Z"
            fill="#C9A96E" opacity="0.70" transform="rotate(216)"/>
      <path d="M0,-3 C-6,-4 -9,-11 -7,-18 C-5,-22 5,-22 7,-18 C9,-11 6,-4 0,-3Z"
            fill="#C9A96E" opacity="0.75" transform="rotate(288)"/>
      <circle r="4" fill="#C9A96E" opacity="0.92"/>
      <circle r="2" fill="#E8D5B0" opacity="0.76"/>
    </g>

    <!-- Leaf pair at x≈202 -->
    <path d="M 202,35 C 198,25 199,15 202,8 C 206,15 206,25 202,35Z"
          fill="#C9A96E" opacity="0.50"/>
    <path d="M 196,35 C 191,26 192,17 196,10 C 200,17 200,26 196,35Z"
          fill="#C9A96E" opacity="0.44"/>

    <!-- Leaf below stem at x≈145 -->
    <path d="M 144,34 C 141,43 142,52 145,58 C 148,52 149,43 144,34Z"
          fill="#C9A96E" opacity="0.46"/>

    <!-- Small leaf at x≈112 (above) -->
    <path d="M 112,34 C 109,26 110,18 113,13 C 116,18 116,26 112,34Z"
          fill="#C9A96E" opacity="0.42"/>

    <!-- 3-petal bud at x≈84 -->
    <g transform="translate(83,33)">
      <path d="M0,-2 C-3,-6 -2,-12 0,-16 C2,-12 3,-6 0,-2Z"
            fill="#C9A96E" opacity="0.72"/>
      <path d="M0,-2 C-3,-6 -2,-12 0,-16 C2,-12 3,-6 0,-2Z"
            fill="#C9A96E" opacity="0.68" transform="rotate(120)"/>
      <path d="M0,-2 C-3,-6 -2,-12 0,-16 C2,-12 3,-6 0,-2Z"
            fill="#C9A96E" opacity="0.68" transform="rotate(240)"/>
      <circle r="3" fill="#C9A96E" opacity="0.86"/>
      <circle r="1.4" fill="#E8D5B0" opacity="0.65"/>
    </g>

    <!-- Berry cluster at x≈62 -->
    <circle cx="62" cy="33" r="3" fill="#C9A96E" opacity="0.54"/>
    <circle cx="56" cy="30" r="2" fill="#C9A96E" opacity="0.44"/>
    <circle cx="58" cy="37" r="1.8" fill="#C9A96E" opacity="0.38"/>

    <!-- Dot trail -->
    <circle cx="42" cy="34" r="2.2" fill="#C9A96E" opacity="0.48"/>
    <circle cx="32" cy="35" r="1.4" fill="#C9A96E" opacity="0.36"/>

    <!-- End 5-petal flower -->
    <g transform="translate(16,35)">
      <path d="M0,-2 C-3,-6 -2,-11 0,-14 C2,-11 3,-6 0,-2Z"
            fill="#C9A96E" opacity="0.74"/>
      <path d="M0,-2 C-3,-6 -2,-11 0,-14 C2,-11 3,-6 0,-2Z"
            fill="#C9A96E" opacity="0.74" transform="rotate(72)"/>
      <path d="M0,-2 C-3,-6 -2,-11 0,-14 C2,-11 3,-6 0,-2Z"
            fill="#C9A96E" opacity="0.74" transform="rotate(144)"/>
      <path d="M0,-2 C-3,-6 -2,-11 0,-14 C2,-11 3,-6 0,-2Z"
            fill="#C9A96E" opacity="0.74" transform="rotate(216)"/>
      <path d="M0,-2 C-3,-6 -2,-11 0,-14 C2,-11 3,-6 0,-2Z"
            fill="#C9A96E" opacity="0.74" transform="rotate(288)"/>
      <circle r="3.2" fill="#C9A96E" opacity="0.90"/>
      <circle r="1.5" fill="#E8D5B0" opacity="0.72"/>
    </g>
  </g>

  <!-- ══════════════════════════════════
       RIGHT ARM (mirror of left)
  ══════════════════════════════════ -->
  <g transform="translate(560,0) scale(-1,1)" filter="url(#gd)">
    <path d="M 260,36 C 232,27 205,44 180,35 C 160,28 142,40 120,34 C 102,29 84,38 64,33 L 24,35"
          fill="none" stroke="#C9A96E" stroke-width="1.3" stroke-linecap="round" opacity="0.62"/>
    <g transform="translate(172,28)">
      <path d="M-6,4 C-12,0 -14,-10 -10,-17 C-6,-21 6,-21 10,-17 C14,-10 12,0 6,4Z"
            fill="none" stroke="#C9A96E" stroke-width="0.8" opacity="0.5"/>
      <path d="M0,-3 C-6,-4 -9,-11 -7,-18 C-5,-22 5,-22 7,-18 C9,-11 6,-4 0,-3Z"
            fill="#C9A96E" opacity="0.82"/>
      <path d="M0,-3 C-6,-4 -9,-11 -7,-18 C-5,-22 5,-22 7,-18 C9,-11 6,-4 0,-3Z"
            fill="#C9A96E" opacity="0.73" transform="rotate(72)"/>
      <path d="M0,-3 C-6,-4 -9,-11 -7,-18 C-5,-22 5,-22 7,-18 C9,-11 6,-4 0,-3Z"
            fill="#C9A96E" opacity="0.78" transform="rotate(144)"/>
      <path d="M0,-3 C-6,-4 -9,-11 -7,-18 C-5,-22 5,-22 7,-18 C9,-11 6,-4 0,-3Z"
            fill="#C9A96E" opacity="0.70" transform="rotate(216)"/>
      <path d="M0,-3 C-6,-4 -9,-11 -7,-18 C-5,-22 5,-22 7,-18 C9,-11 6,-4 0,-3Z"
            fill="#C9A96E" opacity="0.75" transform="rotate(288)"/>
      <circle r="4" fill="#C9A96E" opacity="0.92"/>
      <circle r="2" fill="#E8D5B0" opacity="0.76"/>
    </g>
    <path d="M 202,35 C 198,25 199,15 202,8 C 206,15 206,25 202,35Z"
          fill="#C9A96E" opacity="0.50"/>
    <path d="M 196,35 C 191,26 192,17 196,10 C 200,17 200,26 196,35Z"
          fill="#C9A96E" opacity="0.44"/>
    <path d="M 144,34 C 141,43 142,52 145,58 C 148,52 149,43 144,34Z"
          fill="#C9A96E" opacity="0.46"/>
    <path d="M 112,34 C 109,26 110,18 113,13 C 116,18 116,26 112,34Z"
          fill="#C9A96E" opacity="0.42"/>
    <g transform="translate(83,33)">
      <path d="M0,-2 C-3,-6 -2,-12 0,-16 C2,-12 3,-6 0,-2Z"
            fill="#C9A96E" opacity="0.72"/>
      <path d="M0,-2 C-3,-6 -2,-12 0,-16 C2,-12 3,-6 0,-2Z"
            fill="#C9A96E" opacity="0.68" transform="rotate(120)"/>
      <path d="M0,-2 C-3,-6 -2,-12 0,-16 C2,-12 3,-6 0,-2Z"
            fill="#C9A96E" opacity="0.68" transform="rotate(240)"/>
      <circle r="3" fill="#C9A96E" opacity="0.86"/>
      <circle r="1.4" fill="#E8D5B0" opacity="0.65"/>
    </g>
    <circle cx="62" cy="33" r="3" fill="#C9A96E" opacity="0.54"/>
    <circle cx="56" cy="30" r="2" fill="#C9A96E" opacity="0.44"/>
    <circle cx="58" cy="37" r="1.8" fill="#C9A96E" opacity="0.38"/>
    <circle cx="42" cy="34" r="2.2" fill="#C9A96E" opacity="0.48"/>
    <circle cx="32" cy="35" r="1.4" fill="#C9A96E" opacity="0.36"/>
    <g transform="translate(16,35)">
      <path d="M0,-2 C-3,-6 -2,-11 0,-14 C2,-11 3,-6 0,-2Z"
            fill="#C9A96E" opacity="0.74"/>
      <path d="M0,-2 C-3,-6 -2,-11 0,-14 C2,-11 3,-6 0,-2Z"
            fill="#C9A96E" opacity="0.74" transform="rotate(72)"/>
      <path d="M0,-2 C-3,-6 -2,-11 0,-14 C2,-11 3,-6 0,-2Z"
            fill="#C9A96E" opacity="0.74" transform="rotate(144)"/>
      <path d="M0,-2 C-3,-6 -2,-11 0,-14 C2,-11 3,-6 0,-2Z"
            fill="#C9A96E" opacity="0.74" transform="rotate(216)"/>
      <path d="M0,-2 C-3,-6 -2,-11 0,-14 C2,-11 3,-6 0,-2Z"
            fill="#C9A96E" opacity="0.74" transform="rotate(288)"/>
      <circle r="3.2" fill="#C9A96E" opacity="0.90"/>
      <circle r="1.5" fill="#E8D5B0" opacity="0.72"/>
    </g>
  </g>
</svg>
