<?xml version="1.0" encoding="UTF-8"?>
<svg xmlns="http://www.w3.org/2000/svg" viewBox="0 0 700 110">
  <!-- Entire design is floral-top.svg flipped vertically -->
  <g transform="translate(0,110) scale(1,-1)">

  <defs>
    <filter id="gb" x="-10%" y="-30%" width="120%" height="160%">
      <feGaussianBlur stdDeviation="1.2" result="b"/>
      <feMerge><feMergeNode in="b"/><feMergeNode in="SourceGraphic"/></feMerge>
    </filter>
  </defs>

  <g filter="url(#gb)">
    <path d="M 330,52 C 295,42 262,60 232,50 C 208,42 186,56 162,48 C 140,41 118,54 94,46 C 72,39 50,50 28,44"
          fill="none" stroke="#C9A96E" stroke-width="1.4" stroke-linecap="round" opacity="0.62"/>
    <path d="M 370,52 C 405,42 438,60 468,50 C 492,42 514,56 538,48 C 560,41 582,54 606,46 C 628,39 650,50 672,44"
          fill="none" stroke="#C9A96E" stroke-width="1.4" stroke-linecap="round" opacity="0.62"/>
    <path d="M 315,55 C 330,48 350,45 370,48 L 385,55"
          fill="none" stroke="#C9A96E" stroke-width="1.2" stroke-linecap="round" opacity="0.55"/>
  </g>

  <g transform="translate(350,45)" filter="url(#gb)">
    <path d="M-12,5 C-20,-2 -24,-18 -17,-28 C-12,-34 12,-34 17,-28 C24,-18 20,-2 12,5Z"
          fill="none" stroke="#C9A96E" stroke-width="0.8" opacity="0.45"/>
    <path d="M-10,6 C-16,2 -12,-14 -6,-22 C0,-28 6,-22 10,-14 C14,-6 10,4 4,6Z"
          fill="#C9A96E" opacity="0.44"/>
    <path d="M10,6 C16,2 12,-14 6,-22 C0,-28 -6,-22 -10,-14 C-14,-6 -10,4 -4,6Z"
          fill="#C9A96E" opacity="0.40"/>
    <path d="M0,-6 C-10,-7 -16,-18 -13,-28 C-10,-35 10,-35 13,-28 C16,-18 10,-7 0,-6Z"
          fill="#C9A96E" opacity="0.90"/>
    <path d="M0,-6 C-10,-7 -16,-18 -13,-28 C-10,-35 10,-35 13,-28 C16,-18 10,-7 0,-6Z"
          fill="#C9A96E" opacity="0.80" transform="rotate(72)"/>
    <path d="M0,-6 C-10,-7 -16,-18 -13,-28 C-10,-35 10,-35 13,-28 C16,-18 10,-7 0,-6Z"
          fill="#C9A96E" opacity="0.86" transform="rotate(144)"/>
    <path d="M0,-6 C-10,-7 -16,-18 -13,-28 C-10,-35 10,-35 13,-28 C16,-18 10,-7 0,-6Z"
          fill="#C9A96E" opacity="0.78" transform="rotate(216)"/>
    <path d="M0,-6 C-10,-7 -16,-18 -13,-28 C-10,-35 10,-35 13,-28 C16,-18 10,-7 0,-6Z"
          fill="#C9A96E" opacity="0.83" transform="rotate(288)"/>
    <path d="M0,-5 C-6,-6 -10,-14 -8,-21 C-5,-26 5,-26 8,-21 C10,-14 6,-6 0,-5Z"
          fill="#E8D5B0" opacity="0.62"/>
    <path d="M0,-5 C-6,-6 -10,-14 -8,-21 C-5,-26 5,-26 8,-21 C10,-14 6,-6 0,-5Z"
          fill="#E8D5B0" opacity="0.55" transform="rotate(72)"/>
    <path d="M0,-5 C-6,-6 -10,-14 -8,-21 C-5,-26 5,-26 8,-21 C10,-14 6,-6 0,-5Z"
          fill="#E8D5B0" opacity="0.58" transform="rotate(144)"/>
    <path d="M0,-5 C-6,-6 -10,-14 -8,-21 C-5,-26 5,-26 8,-21 C10,-14 6,-6 0,-5Z"
          fill="#E8D5B0" opacity="0.52" transform="rotate(216)"/>
    <path d="M0,-5 C-6,-6 -10,-14 -8,-21 C-5,-26 5,-26 8,-21 C10,-14 6,-6 0,-5Z"
          fill="#E8D5B0" opacity="0.56" transform="rotate(288)"/>
    <circle r="6.5" fill="#C9A96E" opacity="0.96"/>
    <circle r="3.2" fill="#E8D5B0" opacity="0.88"/>
    <circle r="1.3" fill="#fff" opacity="0.65"/>
  </g>

  <g transform="translate(314,62)" filter="url(#gb)">
    <path d="M-8,5 C-12,0 -8,-14 0,-18 C8,-14 12,0 8,5Z" fill="#C9A96E" opacity="0.42"/>
    <path d="M0,-4 C-7,-5 -11,-13 -9,-20 C-6,-25 6,-25 9,-20 C11,-13 7,-5 0,-4Z" fill="#C9A96E" opacity="0.84"/>
    <path d="M0,-4 C-7,-5 -11,-13 -9,-20 C-6,-25 6,-25 9,-20 C11,-13 7,-5 0,-4Z" fill="#C9A96E" opacity="0.75" transform="rotate(72)"/>
    <path d="M0,-4 C-7,-5 -11,-13 -9,-20 C-6,-25 6,-25 9,-20 C11,-13 7,-5 0,-4Z" fill="#C9A96E" opacity="0.80" transform="rotate(144)"/>
    <path d="M0,-4 C-7,-5 -11,-13 -9,-20 C-6,-25 6,-25 9,-20 C11,-13 7,-5 0,-4Z" fill="#C9A96E" opacity="0.73" transform="rotate(216)"/>
    <path d="M0,-4 C-7,-5 -11,-13 -9,-20 C-6,-25 6,-25 9,-20 C11,-13 7,-5 0,-4Z" fill="#C9A96E" opacity="0.78" transform="rotate(288)"/>
    <circle r="5" fill="#C9A96E" opacity="0.94"/>
    <circle r="2.4" fill="#E8D5B0" opacity="0.80"/>
  </g>

  <g transform="translate(386,62)" filter="url(#gb)">
    <path d="M-8,5 C-12,0 -8,-14 0,-18 C8,-14 12,0 8,5Z" fill="#C9A96E" opacity="0.42"/>
    <path d="M0,-4 C-7,-5 -11,-13 -9,-20 C-6,-25 6,-25 9,-20 C11,-13 7,-5 0,-4Z" fill="#C9A96E" opacity="0.84"/>
    <path d="M0,-4 C-7,-5 -11,-13 -9,-20 C-6,-25 6,-25 9,-20 C11,-13 7,-5 0,-4Z" fill="#C9A96E" opacity="0.75" transform="rotate(72)"/>
    <path d="M0,-4 C-7,-5 -11,-13 -9,-20 C-6,-25 6,-25 9,-20 C11,-13 7,-5 0,-4Z" fill="#C9A96E" opacity="0.80" transform="rotate(144)"/>
    <path d="M0,-4 C-7,-5 -11,-13 -9,-20 C-6,-25 6,-25 9,-20 C11,-13 7,-5 0,-4Z" fill="#C9A96E" opacity="0.73" transform="rotate(216)"/>
    <path d="M0,-4 C-7,-5 -11,-13 -9,-20 C-6,-25 6,-25 9,-20 C11,-13 7,-5 0,-4Z" fill="#C9A96E" opacity="0.78" transform="rotate(288)"/>
    <circle r="5" fill="#C9A96E" opacity="0.94"/>
    <circle r="2.4" fill="#E8D5B0" opacity="0.80"/>
  </g>

  <g filter="url(#gb)">
    <path d="M 342,52 C 338,40 339,28 343,20 C 347,28 347,40 342,52Z" fill="#C9A96E" opacity="0.48"/>
    <path d="M 335,54 C 330,43 330,31 334,23 C 338,31 339,43 335,54Z" fill="#C9A96E" opacity="0.42"/>
    <path d="M 358,52 C 362,40 361,28 357,20 C 353,28 353,40 358,52Z" fill="#C9A96E" opacity="0.48"/>
    <path d="M 365,54 C 370,43 370,31 366,23 C 362,31 361,43 365,54Z" fill="#C9A96E" opacity="0.42"/>
    <g transform="translate(232,46)">
      <path d="M0,-3 C-6,-4 -10,-12 -8,-19 C-5,-24 5,-24 8,-19 C10,-12 6,-4 0,-3Z" fill="#C9A96E" opacity="0.82"/>
      <path d="M0,-3 C-6,-4 -10,-12 -8,-19 C-5,-24 5,-24 8,-19 C10,-12 6,-4 0,-3Z" fill="#C9A96E" opacity="0.73" transform="rotate(72)"/>
      <path d="M0,-3 C-6,-4 -10,-12 -8,-19 C-5,-24 5,-24 8,-19 C10,-12 6,-4 0,-3Z" fill="#C9A96E" opacity="0.78" transform="rotate(144)"/>
      <path d="M0,-3 C-6,-4 -10,-12 -8,-19 C-5,-24 5,-24 8,-19 C10,-12 6,-4 0,-3Z" fill="#C9A96E" opacity="0.70" transform="rotate(216)"/>
      <path d="M0,-3 C-6,-4 -10,-12 -8,-19 C-5,-24 5,-24 8,-19 C10,-12 6,-4 0,-3Z" fill="#C9A96E" opacity="0.75" transform="rotate(288)"/>
      <circle r="4.2" fill="#C9A96E" opacity="0.93"/>
      <circle r="2.1" fill="#E8D5B0" opacity="0.78"/>
    </g>
    <path d="M 257,50 C 253,38 254,26 258,18 C 262,26 262,38 257,50Z" fill="#C9A96E" opacity="0.48"/>
    <path d="M 264,52 C 261,62 262,72 265,78 C 268,72 268,62 264,52Z" fill="#C9A96E" opacity="0.42"/>
    <g transform="translate(140,44)">
      <path d="M0,-3 C-5,-4 -8,-10 -6,-16 C-4,-20 4,-20 6,-16 C8,-10 5,-4 0,-3Z" fill="#C9A96E" opacity="0.80"/>
      <path d="M0,-3 C-5,-4 -8,-10 -6,-16 C-4,-20 4,-20 6,-16 C8,-10 5,-4 0,-3Z" fill="#C9A96E" opacity="0.70" transform="rotate(72)"/>
      <path d="M0,-3 C-5,-4 -8,-10 -6,-16 C-4,-20 4,-20 6,-16 C8,-10 5,-4 0,-3Z" fill="#C9A96E" opacity="0.75" transform="rotate(144)"/>
      <path d="M0,-3 C-5,-4 -8,-10 -6,-16 C-4,-20 4,-20 6,-16 C8,-10 5,-4 0,-3Z" fill="#C9A96E" opacity="0.68" transform="rotate(216)"/>
      <path d="M0,-3 C-5,-4 -8,-10 -6,-16 C-4,-20 4,-20 6,-16 C8,-10 5,-4 0,-3Z" fill="#C9A96E" opacity="0.72" transform="rotate(288)"/>
      <circle r="3.8" fill="#C9A96E" opacity="0.92"/>
      <circle r="1.8" fill="#E8D5B0" opacity="0.76"/>
    </g>
    <path d="M 164,48 C 160,37 161,26 165,18 C 169,26 169,37 164,48Z" fill="#C9A96E" opacity="0.46"/>
    <path d="M 170,50 C 167,60 168,70 171,76 C 174,70 174,60 170,50Z" fill="#C9A96E" opacity="0.40"/>
    <path d="M 157,48 C 154,40 155,31 158,24 C 161,31 161,40 157,48Z" fill="#C9A96E" opacity="0.42"/>
    <path d="M 188,50 C 185,62 186,72 189,78 C 192,72 192,62 188,50Z" fill="#C9A96E" opacity="0.38"/>
    <path d="M 208,48 C 205,38 206,28 209,21 C 212,28 212,38 208,48Z" fill="#C9A96E" opacity="0.40"/>
    <g transform="translate(94,46)">
      <path d="M0,-2 C-3,-7 -2,-13 0,-17 C2,-13 3,-7 0,-2Z" fill="#C9A96E" opacity="0.70"/>
      <path d="M0,-2 C-3,-7 -2,-13 0,-17 C2,-13 3,-7 0,-2Z" fill="#C9A96E" opacity="0.66" transform="rotate(120)"/>
      <path d="M0,-2 C-3,-7 -2,-13 0,-17 C2,-13 3,-7 0,-2Z" fill="#C9A96E" opacity="0.66" transform="rotate(240)"/>
      <circle r="3" fill="#C9A96E" opacity="0.86"/>
      <circle r="1.4" fill="#E8D5B0" opacity="0.65"/>
      <circle cx="10" cy="-6" r="2.4" fill="#C9A96E" opacity="0.45"/>
      <circle cx="14" cy="2" r="1.8" fill="#C9A96E" opacity="0.36"/>
    </g>
    <path d="M 114,48 C 110,38 111,27 114,20 C 118,27 118,38 114,48Z" fill="#C9A96E" opacity="0.44"/>
    <path d="M 120,50 C 117,60 118,69 121,75 C 124,69 124,60 120,50Z" fill="#C9A96E" opacity="0.38"/>
    <circle cx="56" cy="45" r="2.6" fill="#C9A96E" opacity="0.50"/>
    <circle cx="44" cy="45" r="1.7" fill="#C9A96E" opacity="0.38"/>
    <g transform="translate(24,45)">
      <path d="M0,-2 C-2,-5 -2,-9 0,-12 C2,-9 2,-5 0,-2Z" fill="#C9A96E" opacity="0.72"/>
      <path d="M0,-2 C-2,-5 -2,-9 0,-12 C2,-9 2,-5 0,-2Z" fill="#C9A96E" opacity="0.72" transform="rotate(72)"/>
      <path d="M0,-2 C-2,-5 -2,-9 0,-12 C2,-9 2,-5 0,-2Z" fill="#C9A96E" opacity="0.72" transform="rotate(144)"/>
      <path d="M0,-2 C-2,-5 -2,-9 0,-12 C2,-9 2,-5 0,-2Z" fill="#C9A96E" opacity="0.72" transform="rotate(216)"/>
      <path d="M0,-2 C-2,-5 -2,-9 0,-12 C2,-9 2,-5 0,-2Z" fill="#C9A96E" opacity="0.72" transform="rotate(288)"/>
      <circle r="3" fill="#C9A96E" opacity="0.88"/>
      <circle r="1.4" fill="#E8D5B0" opacity="0.70"/>
    </g>
    <!-- Right mirror -->
    <g transform="translate(700,0) scale(-1,1)">
      <g transform="translate(232,46)">
        <path d="M0,-3 C-6,-4 -10,-12 -8,-19 C-5,-24 5,-24 8,-19 C10,-12 6,-4 0,-3Z" fill="#C9A96E" opacity="0.82"/>
        <path d="M0,-3 C-6,-4 -10,-12 -8,-19 C-5,-24 5,-24 8,-19 C10,-12 6,-4 0,-3Z" fill="#C9A96E" opacity="0.73" transform="rotate(72)"/>
        <path d="M0,-3 C-6,-4 -10,-12 -8,-19 C-5,-24 5,-24 8,-19 C10,-12 6,-4 0,-3Z" fill="#C9A96E" opacity="0.78" transform="rotate(144)"/>
        <path d="M0,-3 C-6,-4 -10,-12 -8,-19 C-5,-24 5,-24 8,-19 C10,-12 6,-4 0,-3Z" fill="#C9A96E" opacity="0.70" transform="rotate(216)"/>
        <path d="M0,-3 C-6,-4 -10,-12 -8,-19 C-5,-24 5,-24 8,-19 C10,-12 6,-4 0,-3Z" fill="#C9A96E" opacity="0.75" transform="rotate(288)"/>
        <circle r="4.2" fill="#C9A96E" opacity="0.93"/>
        <circle r="2.1" fill="#E8D5B0" opacity="0.78"/>
      </g>
      <path d="M 257,50 C 253,38 254,26 258,18 C 262,26 262,38 257,50Z" fill="#C9A96E" opacity="0.48"/>
      <path d="M 264,52 C 261,62 262,72 265,78 C 268,72 268,62 264,52Z" fill="#C9A96E" opacity="0.42"/>
      <g transform="translate(140,44)">
        <path d="M0,-3 C-5,-4 -8,-10 -6,-16 C-4,-20 4,-20 6,-16 C8,-10 5,-4 0,-3Z" fill="#C9A96E" opacity="0.80"/>
        <path d="M0,-3 C-5,-4 -8,-10 -6,-16 C-4,-20 4,-20 6,-16 C8,-10 5,-4 0,-3Z" fill="#C9A96E" opacity="0.70" transform="rotate(72)"/>
        <path d="M0,-3 C-5,-4 -8,-10 -6,-16 C-4,-20 4,-20 6,-16 C8,-10 5,-4 0,-3Z" fill="#C9A96E" opacity="0.75" transform="rotate(144)"/>
        <path d="M0,-3 C-5,-4 -8,-10 -6,-16 C-4,-20 4,-20 6,-16 C8,-10 5,-4 0,-3Z" fill="#C9A96E" opacity="0.68" transform="rotate(216)"/>
        <path d="M0,-3 C-5,-4 -8,-10 -6,-16 C-4,-20 4,-20 6,-16 C8,-10 5,-4 0,-3Z" fill="#C9A96E" opacity="0.72" transform="rotate(288)"/>
        <circle r="3.8" fill="#C9A96E" opacity="0.92"/>
        <circle r="1.8" fill="#E8D5B0" opacity="0.76"/>
      </g>
      <path d="M 164,48 C 160,37 161,26 165,18 C 169,26 169,37 164,48Z" fill="#C9A96E" opacity="0.46"/>
      <path d="M 170,50 C 167,60 168,70 171,76 C 174,70 174,60 170,50Z" fill="#C9A96E" opacity="0.40"/>
      <path d="M 157,48 C 154,40 155,31 158,24 C 161,31 161,40 157,48Z" fill="#C9A96E" opacity="0.42"/>
      <path d="M 188,50 C 185,62 186,72 189,78 C 192,72 192,62 188,50Z" fill="#C9A96E" opacity="0.38"/>
      <path d="M 208,48 C 205,38 206,28 209,21 C 212,28 212,38 208,48Z" fill="#C9A96E" opacity="0.40"/>
      <g transform="translate(94,46)">
        <path d="M0,-2 C-3,-7 -2,-13 0,-17 C2,-13 3,-7 0,-2Z" fill="#C9A96E" opacity="0.70"/>
        <path d="M0,-2 C-3,-7 -2,-13 0,-17 C2,-13 3,-7 0,-2Z" fill="#C9A96E" opacity="0.66" transform="rotate(120)"/>
        <path d="M0,-2 C-3,-7 -2,-13 0,-17 C2,-13 3,-7 0,-2Z" fill="#C9A96E" opacity="0.66" transform="rotate(240)"/>
        <circle r="3" fill="#C9A96E" opacity="0.86"/>
        <circle r="1.4" fill="#E8D5B0" opacity="0.65"/>
        <circle cx="10" cy="-6" r="2.4" fill="#C9A96E" opacity="0.45"/>
        <circle cx="14" cy="2" r="1.8" fill="#C9A96E" opacity="0.36"/>
      </g>
      <path d="M 114,48 C 110,38 111,27 114,20 C 118,27 118,38 114,48Z" fill="#C9A96E" opacity="0.44"/>
      <path d="M 120,50 C 117,60 118,69 121,75 C 124,69 124,60 120,50Z" fill="#C9A96E" opacity="0.38"/>
      <circle cx="56" cy="45" r="2.6" fill="#C9A96E" opacity="0.50"/>
      <circle cx="44" cy="45" r="1.7" fill="#C9A96E" opacity="0.38"/>
      <g transform="translate(24,45)">
        <path d="M0,-2 C-2,-5 -2,-9 0,-12 C2,-9 2,-5 0,-2Z" fill="#C9A96E" opacity="0.72"/>
        <path d="M0,-2 C-2,-5 -2,-9 0,-12 C2,-9 2,-5 0,-2Z" fill="#C9A96E" opacity="0.72" transform="rotate(72)"/>
        <path d="M0,-2 C-2,-5 -2,-9 0,-12 C2,-9 2,-5 0,-2Z" fill="#C9A96E" opacity="0.72" transform="rotate(144)"/>
        <path d="M0,-2 C-2,-5 -2,-9 0,-12 C2,-9 2,-5 0,-2Z" fill="#C9A96E" opacity="0.72" transform="rotate(216)"/>
        <path d="M0,-2 C-2,-5 -2,-9 0,-12 C2,-9 2,-5 0,-2Z" fill="#C9A96E" opacity="0.72" transform="rotate(288)"/>
        <circle r="3" fill="#C9A96E" opacity="0.88"/>
        <circle r="1.4" fill="#E8D5B0" opacity="0.70"/>
      </g>
    </g>
  </g>

  </g><!-- end flip transform -->
</svg>
